<svg width="126" height="59" viewBox="0 0 126 59" fill="none" xmlns="http://www.w3.org/2000/svg">
<path fill-rule="evenodd" clip-rule="evenodd" d="M29.6685 30.6799C30.6726 28.9227 31.1997 26.9319 31.1971 24.9063C31.1945 22.8807 30.6622 20.8913 29.6535 19.1367C28.6447 17.3822 27.1949 15.924 25.4487 14.9078C23.7025 13.8916 21.7212 13.3529 19.7026 13.3457C18.6884 13.3478 17.6786 13.4807 16.6981 13.741C14.4945 14.3327 12.5154 15.5669 11.011 17.2877C9.50669 19.0084 8.5448 21.1382 8.24707 23.4076C7.94935 25.6771 8.32916 27.9842 9.33845 30.0369C10.3477 32.0897 11.9412 33.7959 13.9171 34.9397L31.0972 44.893V42.769L14.8343 33.329C13.1747 32.3646 11.8374 30.928 10.9916 29.2009C10.1457 27.4738 9.8293 25.5337 10.0823 23.6261C10.3353 21.7185 11.1464 19.9291 12.413 18.4841C13.6796 17.0391 15.3448 16.0035 17.198 15.5083C19.0511 15.0131 21.009 15.0804 22.824 15.7019C24.639 16.3234 26.2296 17.471 27.3946 18.9997C28.5595 20.5283 29.2465 22.3694 29.3687 24.2899C29.4909 26.2104 29.0428 28.1241 28.081 29.789C27.9869 29.9601 27.8752 30.1312 27.7635 30.3023L26.7228 29.7123C26.8404 29.5353 26.9462 29.3701 27.0403 29.199C27.8831 27.74 28.2757 26.0629 28.1685 24.3799C28.0614 22.6969 27.4592 21.0836 26.4382 19.7441C25.4172 18.4046 24.0232 17.399 22.4326 16.8546C20.842 16.3102 19.1262 16.2514 17.5023 16.6856C15.8784 17.1198 14.4193 18.0276 13.3095 19.294C12.1998 20.5605 11.4893 22.1288 11.2679 23.8005C11.0465 25.4722 11.3241 27.1723 12.0657 28.6856C12.8073 30.199 13.9795 31.4576 15.434 32.3024L31.0972 41.3766V39.2526L16.3512 30.7094C15.2104 30.0483 14.2905 29.0626 13.7079 27.8769C13.1252 26.6913 12.906 25.3589 13.078 24.0482C13.2499 22.7375 13.8053 21.5074 14.6738 20.5134C15.5424 19.5195 16.6851 18.8062 17.9576 18.4639C19.2301 18.1216 20.5751 18.1656 21.8227 18.5903C23.0703 19.015 24.1643 19.8013 24.9666 20.8499C25.7688 21.8985 26.2432 23.1623 26.3297 24.4814C26.4163 25.8005 26.1111 27.1158 25.4528 28.2609C25.3548 28.4361 25.2468 28.6055 25.1294 28.7683L24.0829 28.1783C24.2067 28.0175 24.3187 27.848 24.418 27.6709C24.9566 26.7317 25.2057 25.6533 25.1338 24.5721C25.0619 23.4908 24.6722 22.4553 24.014 21.5962C23.3558 20.7371 22.4586 20.0931 21.4357 19.7455C20.4129 19.398 19.3103 19.3625 18.2674 19.6435C17.2244 19.9245 16.2879 20.5094 15.5761 21.3243C14.8643 22.1393 14.4092 23.1476 14.2684 24.222C14.1275 25.2964 14.3071 26.3886 14.7846 27.3605C15.2621 28.3325 16.0159 29.1406 16.9509 29.6828L31.0972 37.8661V35.7421L17.8682 28.0721C17.0341 27.5884 16.4256 26.7921 16.1764 25.8583C15.9273 24.9246 16.0578 23.9297 16.5394 23.0925C17.0333 22.2798 17.8244 21.6931 18.7437 21.4579C19.6629 21.2227 20.6374 21.3575 21.4588 21.8336C22.2803 22.3097 22.8837 23.0894 23.14 24.0059C23.3963 24.9224 23.2852 25.9032 22.8305 26.7387C22.7262 26.9097 22.6103 27.0733 22.4836 27.2284L21.4253 26.6384C21.5664 26.4952 21.6889 26.3346 21.7898 26.1605C22.0314 25.7424 22.1439 25.2617 22.1131 24.7793C22.0823 24.297 21.9096 23.8347 21.6169 23.4509C21.3241 23.067 20.9245 22.779 20.4685 22.6232C20.0126 22.4674 19.5208 22.4509 19.0555 22.5757C18.5901 22.7005 18.1722 22.961 17.8545 23.3243C17.5367 23.6876 17.3336 24.1372 17.2707 24.6164C17.2078 25.0956 17.2879 25.5828 17.501 26.0162C17.7142 26.4497 18.0506 26.8099 18.4679 27.0514L31.0972 34.3674V32.2434L29.3334 31.2345C29.4686 31.0457 29.5744 30.8746 29.6685 30.6799ZM20.2024 25.1988C20.1503 25.2917 20.0742 25.3687 19.9821 25.4217C19.89 25.4747 19.7852 25.5016 19.6791 25.4997C19.5755 25.4986 19.4741 25.4701 19.3851 25.4171C19.2471 25.3389 19.1457 25.2088 19.1033 25.0556C19.0608 24.9023 19.0808 24.7384 19.1587 24.6C19.2367 24.4615 19.3663 24.3597 19.519 24.3171C19.6717 24.2745 19.835 24.2946 19.9731 24.3728C20.0471 24.41 20.1125 24.4625 20.1649 24.5268C20.2173 24.5912 20.2556 24.6659 20.2772 24.7461C20.2989 24.8263 20.3034 24.9102 20.2905 24.9923C20.2776 25.0744 20.2476 25.1528 20.2024 25.2224V25.1988Z" fill="white"/>
<path d="M47.5267 27.3581C48.1243 27.1248 48.6366 26.7139 48.9949 26.1803C49.3532 25.6467 49.5405 25.016 49.5317 24.3727C49.5317 21.2575 47.2621 19.8887 44.24 19.8887H36.9141V35.3526H44.2224C47.415 35.3526 49.9903 34.2493 49.9903 30.8037C50.0079 29.8302 49.3317 27.9068 47.5267 27.3581ZM39.7774 22.5378H44.2224C46.0745 22.5378 46.6448 23.7178 46.6448 24.4376C46.6448 25.3226 46.0568 26.0955 44.2224 26.0955H39.7774V22.5378ZM44.2224 32.6327H39.7774V28.6561H44.2224C45.3983 28.6561 47.1093 29.3877 47.1093 30.7801C47.1093 32.1725 45.4159 32.6327 44.2224 32.6327Z" fill="white"/>
<path d="M59.6538 19.8887H56.4729L49.5703 35.3526H52.7159L54.0388 32.4498H62.0938L63.3932 35.3644H66.5682L59.6538 19.8887ZM55.2088 29.7181L58.0663 23.1337L60.9297 29.7181H55.2088Z" fill="white"/>
<path d="M83.099 35.376V19.9121H79.7771L74.9558 26.5614L70.1345 19.9121H66.7891V35.376H69.6936V24.1306L74.603 30.8684H75.1734L80.1945 24.1542V35.376H83.099Z" fill="white"/>
<path d="M90.2738 19.8887L83.3594 35.3526H86.5108L87.8279 32.4498H95.8653L97.1588 35.3644H100.334L93.4429 19.8887H90.2738ZM88.9979 29.7181L91.8554 23.1337L94.7188 29.7181H88.9979Z" fill="white"/>
<path d="M115.015 27.7298C115.062 23.6883 112.417 19.6055 107.113 19.6055C101.81 19.6055 99.1875 23.6647 99.1875 27.7298C99.1875 31.7949 101.698 35.7066 107.113 35.7066C108.721 35.7505 110.305 35.313 111.664 34.4499L113.504 36.3143L115.597 34.2198L113.716 32.3318C114.564 30.9476 115.014 29.3548 115.015 27.7298ZM107.113 33.0398C103.48 33.0398 102.116 30.3199 102.051 27.7829C101.986 25.2459 103.48 22.2369 107.113 22.2369C110.747 22.2369 112.199 25.1515 112.152 27.7593C112.146 28.6173 111.97 29.4656 111.635 30.255L109.977 28.5735L107.883 30.6798L109.647 32.4498C108.865 32.855 107.994 33.0578 107.113 33.0398Z" fill="white"/>
<path d="M42.5244 36.8693V44.3682H41.3073L41.225 43.6602C41.0392 43.9386 40.7841 44.1634 40.485 44.3125C40.186 44.4615 39.8533 44.5295 39.5199 44.5098C39.1549 44.5281 38.7901 44.4686 38.4496 44.3355C38.109 44.2023 37.8004 43.9984 37.5439 43.7371C37.2874 43.4758 37.0888 43.163 36.9612 42.8193C36.8336 42.4756 36.7799 42.1087 36.8036 41.7427C36.764 41.3741 36.8055 41.0013 36.925 40.6505C37.0445 40.2997 37.2392 39.9795 37.4954 39.7123C37.7515 39.4452 38.0629 39.2376 38.4076 39.1042C38.7523 38.9708 39.122 38.9148 39.4906 38.9402C39.8252 38.9388 40.1558 39.0147 40.4565 39.1621C40.7573 39.3094 41.0202 39.5242 41.225 39.7898V36.8398L42.5244 36.8693ZM38.1088 41.7191C38.096 41.9266 38.1255 42.1345 38.1958 42.3301C38.2661 42.5256 38.3755 42.7047 38.5173 42.8562C38.6592 43.0077 38.8305 43.1284 39.0206 43.2109C39.2107 43.2935 39.4157 43.3361 39.6228 43.3361C39.83 43.3361 40.035 43.2935 40.2251 43.2109C40.4152 43.1284 40.5865 43.0077 40.7283 42.8562C40.8702 42.7047 40.9796 42.5256 41.0499 42.3301C41.1201 42.1345 41.1497 41.9266 41.1368 41.7191C41.1416 41.5158 41.1054 41.3136 41.0304 41.1247C40.9555 40.9358 40.8432 40.764 40.7005 40.6196C40.5577 40.4753 40.3874 40.3613 40.1997 40.2847C40.012 40.208 39.8108 40.1701 39.6081 40.1733C39.4061 40.1673 39.205 40.2035 39.0176 40.2795C38.8302 40.3556 38.6607 40.47 38.5197 40.6154C38.3787 40.7607 38.2694 40.9339 38.1987 41.1239C38.1279 41.3139 38.0973 41.5166 38.1088 41.7191Z" fill="white"/>
<path d="M44.5483 37.5893C44.5483 37.7943 44.4671 37.9909 44.3227 38.1358C44.1782 38.2808 43.9823 38.3622 43.778 38.3622C43.5738 38.3622 43.3779 38.2808 43.2334 38.1358C43.089 37.9909 43.0078 37.7943 43.0078 37.5893C43.0078 37.3843 43.089 37.1877 43.2334 37.0428C43.3779 36.8978 43.5738 36.8164 43.778 36.8164C43.9823 36.8164 44.1782 36.8978 44.3227 37.0428C44.4671 37.1877 44.5483 37.3843 44.5483 37.5893ZM43.1254 39.0584V44.3684H44.4307V39.0584H43.1254Z" fill="white"/>
<path d="M49.2081 38.5391L50.1724 39.2707L49.5844 40.02C49.9599 40.4541 50.1574 41.0149 50.1371 41.5894C50.1599 41.991 50.0674 42.3908 49.8704 42.7412C49.6734 43.0916 49.3803 43.3778 49.0258 43.5659C49.3712 43.707 49.663 43.9544 49.8595 44.2724C50.056 44.5904 50.147 44.9627 50.1194 45.3359C50.1194 46.7932 49.0082 47.6959 47.4795 47.6959C45.9508 47.6959 44.8043 46.7637 44.8043 45.3359H46.0978C46.1109 45.5029 46.1575 45.6655 46.2347 45.814C46.3119 45.9625 46.4182 46.0939 46.5472 46.2002C46.6762 46.3065 46.8253 46.3856 46.9855 46.4328C47.1457 46.4799 47.3137 46.4941 47.4795 46.4746C48.238 46.451 48.8259 46.0203 48.8259 45.3123C48.8259 44.6043 48.1322 44.2503 47.4795 44.2503C47.1224 44.2813 46.7629 44.234 46.4259 44.1116C46.0889 43.9892 45.7824 43.7946 45.5279 43.5414C45.2733 43.2883 45.0767 42.9825 44.9518 42.6454C44.8268 42.3083 44.7765 41.9479 44.8043 41.5894C44.7902 41.233 44.8498 40.8777 44.9793 40.5456C45.1087 40.2135 45.3053 39.9119 45.5566 39.6597C45.8078 39.4076 46.1084 39.2103 46.4393 39.0804C46.7703 38.9505 47.1244 38.8907 47.4795 38.9049C47.9024 38.8801 48.3228 38.9851 48.6848 39.2058L49.2081 38.5391ZM46.0978 41.5894C46.0855 41.7779 46.1119 41.9669 46.1753 42.1447C46.2388 42.3226 46.3379 42.4855 46.4666 42.6234C46.5953 42.7612 46.7508 42.8711 46.9235 42.9463C47.0962 43.0214 47.2825 43.0602 47.4707 43.0602C47.6589 43.0602 47.8452 43.0214 48.0179 42.9463C48.1906 42.8711 48.3461 42.7612 48.4748 42.6234C48.6035 42.4855 48.7026 42.3226 48.7661 42.1447C48.8295 41.9669 48.8559 41.7779 48.8436 41.5894C48.8559 41.4009 48.8295 41.2118 48.7661 41.034C48.7026 40.8561 48.6035 40.6932 48.4748 40.5554C48.3461 40.4175 48.1906 40.3076 48.0179 40.2325C47.8452 40.1573 47.6589 40.1186 47.4707 40.1186C47.2825 40.1186 47.0962 40.1573 46.9235 40.2325C46.7508 40.3076 46.5953 40.4175 46.4666 40.5554C46.3379 40.6932 46.2388 40.8561 46.1753 41.034C46.1119 41.2118 46.0855 41.4009 46.0978 41.5894Z" fill="white"/>
<path d="M51.8608 37.5893C51.8608 37.7943 51.7796 37.9909 51.6352 38.1358C51.4907 38.2808 51.2948 38.3622 51.0905 38.3622C50.8863 38.3622 50.6903 38.2808 50.5459 38.1358C50.4015 37.9909 50.3203 37.7943 50.3203 37.5893C50.3203 37.3843 50.4015 37.1877 50.5459 37.0428C50.6903 36.8978 50.8863 36.8164 51.0905 36.8164C51.2948 36.8164 51.4907 36.8978 51.6352 37.0428C51.7796 37.1877 51.8608 37.3843 51.8608 37.5893ZM50.4379 39.0584V44.3684H51.7667V39.0584H50.4379Z" fill="white"/>
<path d="M54.2247 37.5898V39.0884H55.6828V40.2153H54.2188V42.4809C54.2047 42.5771 54.2121 42.6751 54.2404 42.768C54.2687 42.8609 54.3173 42.9463 54.3826 43.018C54.4479 43.0898 54.5282 43.146 54.6179 43.1827C54.7075 43.2194 54.8042 43.2357 54.9008 43.2302C55.1196 43.2242 55.3345 43.1699 55.5299 43.0709L55.8827 44.2096C55.5391 44.3511 55.1722 44.4271 54.8009 44.4338C53.6602 44.4751 52.9076 43.8438 52.9076 42.5045V40.2153H51.9375V39.0884H52.9429V37.7255L54.2247 37.5898Z" fill="white"/>
<path d="M60.3039 39.076H61.5504V44.386H60.3216L60.2569 43.6131C60.0754 43.9027 59.8226 44.1406 59.523 44.3039C59.2233 44.4671 58.8869 44.5503 58.546 44.5453C56.9879 44.5453 55.8296 43.5895 55.8296 41.7369C55.798 41.3647 55.8472 40.9901 55.9739 40.6388C56.1005 40.2875 56.3015 39.968 56.563 39.7022C56.8246 39.4364 57.1404 39.2306 57.4888 39.0991C57.8373 38.9675 58.2099 38.9134 58.5812 38.9403C58.9105 38.9288 59.2373 39.0019 59.5306 39.1526C59.8238 39.3034 60.0738 39.5268 60.2569 39.8017L60.3039 39.076ZM57.1349 41.7192C57.1216 41.9307 57.1526 42.1426 57.2259 42.3413C57.2993 42.54 57.4133 42.7211 57.5607 42.8728C57.708 43.0246 57.8854 43.1437 58.0815 43.2224C58.2775 43.3011 58.4878 43.3378 58.6988 43.3299C60.7508 43.3299 60.7508 40.1203 58.6988 40.1203C58.4884 40.1108 58.2783 40.1458 58.0823 40.2232C57.8863 40.3006 57.7087 40.4185 57.5611 40.5694C57.4136 40.7202 57.2993 40.9006 57.2259 41.0987C57.1524 41.2968 57.1214 41.5083 57.1349 41.7192Z" fill="white"/>
<path d="M63.4185 36.8691V44.368H62.125V36.8691H63.4185Z" fill="white"/>
</svg>
