<svg width="103" height="32" viewBox="0 0 103 32" fill="none" xmlns="http://www.w3.org/2000/svg">
<path fill-rule="evenodd" clip-rule="evenodd" d="M20.6284 17.6155C23.6764 12.0094 21.8627 4.81444 16.583 1.57807C14.9003 0.545637 12.991 0 11.0715 0C10.1042 0 9.13696 0.133734 8.19488 0.406552C5.34342 1.21966 2.96049 3.16148 1.47934 5.87362C-1.5686 11.4798 0.245052 18.6747 5.52478 21.9057L21.9937 32V29.8442L6.40138 20.2849C4.25523 18.9689 2.71867 16.8399 2.07381 14.2882C1.42896 11.7365 1.76146 9.0779 3.00079 6.79906C4.24012 4.51488 6.2452 2.88332 8.64325 2.1986C9.43924 1.97392 10.2503 1.85624 11.0665 1.85624C12.6837 1.85624 14.2857 2.31628 15.7014 3.18288C20.1398 5.90572 21.6662 11.9559 19.107 16.6687C19.0163 16.8399 18.9105 17.011 18.8047 17.1876L17.8072 16.5777C17.918 16.4012 18.0188 16.23 18.1145 16.0588C20.3614 11.9291 19.0213 6.62788 15.1321 4.24206C13.8978 3.48245 12.4922 3.08659 11.0715 3.08659C8.15961 3.08659 5.45425 4.7449 4.00333 7.40889C2.91514 9.40421 2.62798 11.7365 3.19223 13.9726C3.75648 16.2086 5.1016 18.0702 6.98578 19.2257L22.0038 28.432V26.2762L7.86741 17.6102C6.3913 16.7061 5.33334 15.2404 4.89001 13.4911C4.44667 11.7419 4.67338 9.9124 5.52982 8.34503C6.38123 6.77766 7.76162 5.65429 9.40901 5.18355C11.0413 4.71815 12.7945 4.96423 14.2555 5.86292C15.7316 6.76697 16.7896 8.2327 17.2278 9.98195C17.6712 11.7365 17.4445 13.5607 16.5931 15.128C16.5024 15.2992 16.3966 15.4704 16.2807 15.6416L15.2782 15.0264C15.3991 14.8552 15.5049 14.6841 15.5956 14.5182C16.2958 13.229 16.4822 11.7312 16.1195 10.2976C15.7568 8.86392 14.8903 7.66031 13.6761 6.91675C12.4771 6.18388 11.0363 5.98061 9.70121 6.36041C8.35105 6.74557 7.21752 7.66566 6.51725 8.95486C5.81698 10.2441 5.63058 11.7419 5.99331 13.1755C6.35604 14.6092 7.22256 15.8128 8.4367 16.5563L21.9988 24.8693V22.7135L9.31329 14.9355C7.65078 13.9137 7.07646 11.651 8.0387 9.88566C8.50219 9.02975 9.25284 8.41992 10.1546 8.16315C11.0463 7.91173 11.9985 8.04547 12.7995 8.53226C13.6056 9.02441 14.1799 9.82146 14.4217 10.779C14.6636 11.7312 14.5376 12.7315 14.0741 13.5821C13.9834 13.7533 13.8726 13.9191 13.7416 14.0849L12.729 13.4644C12.865 13.3146 12.9809 13.1541 13.0766 12.9776C13.7215 11.7954 13.3386 10.2762 12.2252 9.59144C11.8726 9.37212 11.4695 9.25978 11.0614 9.25978C10.2302 9.25978 9.45435 9.73587 9.04124 10.5008C8.39639 11.683 8.77927 13.2023 9.89265 13.887L22.0038 21.3119V19.1561L20.3362 18.1344C20.442 17.9579 20.5428 17.7867 20.6385 17.6155H20.6284ZM11.5501 12.0522C11.4494 12.2394 11.2579 12.3571 11.0514 12.3571C10.9506 12.3571 10.8549 12.3303 10.7642 12.2768C10.4922 12.111 10.3964 11.7365 10.5526 11.4423C10.6534 11.2551 10.8448 11.1374 11.0514 11.1374C11.1521 11.1374 11.2479 11.1642 11.3385 11.2177C11.6106 11.3835 11.7063 11.7579 11.5501 12.0522Z" fill="#FEFEFE"/>
<path d="M37.7156 14.2188C39.0859 13.5715 39.6351 12.4053 39.6351 11.191C39.6351 8.02953 37.4637 6.64404 34.5468 6.64404H27.5391V22.3338H34.5468C37.6048 22.3338 40.0784 21.2158 40.0784 17.7173C40.0784 16.733 39.4436 14.7805 37.7156 14.2188ZM30.2847 9.33478H34.5468C36.3201 9.33478 36.8693 10.5437 36.8693 11.2606C36.8693 12.1593 36.3 12.9403 34.5468 12.9403H30.2847V9.33478ZM34.5468 19.5788H30.2847V15.5454H34.5468C35.6854 15.5454 37.3126 16.2836 37.3126 17.6959C37.3126 19.1081 35.6854 19.5788 34.5468 19.5788Z" fill="#FEFEFE"/>
<path d="M49.3307 6.64404H46.2928L39.668 22.3338H42.6857L43.9502 19.3756H51.6733L52.9177 22.3338H55.9555L49.3256 6.64404H49.3307ZM45.0686 16.6153L47.8143 9.93926L50.5599 16.6153H45.0736H45.0686Z" fill="#FEFEFE"/>
<path d="M71.8107 22.355V6.66522H68.6217L64.0019 13.4108L59.3771 6.66522H56.168V22.355H58.959V10.9447L63.6644 17.7812H64.2135L69.0247 10.9661V22.355H71.8107Z" fill="#FEFEFE"/>
<path d="M78.7147 6.64404L72.0898 22.3338H75.1075L76.3721 19.3756H84.0952L85.3395 22.3338H88.3774L81.7475 6.64404H78.7097H78.7147ZM77.4905 16.6153L80.2361 9.93926L82.9818 16.6153H77.4955H77.4905Z" fill="#FEFEFE"/>
<path d="M102.44 14.5768C102.48 10.4738 99.9508 6.32806 94.8626 6.32806C89.7743 6.32806 87.2654 10.4738 87.2654 14.5982C87.2654 18.7226 89.6735 22.6918 94.8626 22.6918C96.646 22.6918 98.0919 22.2104 99.2254 21.4187L101.004 23.307L102.999 21.1886L101.195 19.2736C102.021 17.8934 102.424 16.2351 102.44 14.5768ZM94.8626 19.9743C91.3814 19.9743 90.0715 17.2194 90.006 14.641C89.9405 11.9984 91.3763 9.01345 94.8626 9.01345C98.3488 9.01345 99.7392 11.9717 99.6939 14.6143C99.6788 15.4702 99.5226 16.3528 99.1951 17.1445L97.5931 15.4434L95.5981 17.5618L97.3059 19.3752C96.651 19.7497 95.8399 19.969 94.8575 19.969L94.8626 19.9743Z" fill="#FEFEFE"/>
<path d="M30.3666 30.4368C29.4799 30.4368 28.7343 29.8163 28.7343 28.6501C28.7343 27.5856 29.4346 26.842 30.3918 26.842C30.7898 26.842 31.2079 27.0025 31.5455 27.3235L32.4422 26.3178C31.8125 25.6598 31.1827 25.4138 30.3666 25.4138C28.6991 25.4138 27.3086 26.4783 27.3086 28.6448C27.3086 30.8113 28.6991 31.8758 30.3666 31.8758C31.218 31.8758 31.9183 31.603 32.5833 30.9076L31.6261 29.9179C31.2785 30.287 30.82 30.4261 30.3666 30.4261V30.4368Z" fill="#FEFEFE"/>
<path d="M35.5751 25.4739C33.7413 25.4739 32.5977 26.9129 32.5977 28.6568C32.5977 30.4007 33.7161 31.8396 35.5851 31.8396C37.4542 31.8396 38.5827 30.4167 38.5827 28.6568C38.5827 26.8968 37.4038 25.4739 35.57 25.4739H35.5751ZM35.5851 30.4541C34.5473 30.4541 34.0234 29.5876 34.0234 28.6568C34.0234 27.726 34.5574 26.8487 35.5851 26.8487C36.5423 26.8487 37.1469 27.742 37.1469 28.6568C37.1469 29.5715 36.6229 30.4541 35.5851 30.4541Z" fill="#FEFEFE"/>
<path d="M42.2936 25.4946C41.5681 25.4946 40.9887 25.8048 40.4043 26.4093L40.3086 25.5802H39.0391V31.6998H40.4497V28.5758C40.4497 27.645 41.0442 26.864 41.9207 26.864C42.7973 26.864 43.3112 27.5701 43.3112 28.5009V31.6998H44.7369V28.4902C44.7369 26.5698 43.6538 25.4946 42.2986 25.4946H42.2936Z" fill="#FEFEFE"/>
<path d="M47.8626 27.9504C47.1271 27.9023 46.7896 27.6776 46.7896 27.2818C46.7896 26.8859 47.1624 26.6773 47.8374 26.6773C48.3866 26.6773 48.8501 26.811 49.2632 27.2229L50.0541 26.2333C49.3891 25.6128 48.714 25.4255 47.8123 25.4255C46.7644 25.4255 45.384 25.923 45.384 27.3353C45.384 28.7475 46.6787 29.1434 47.7669 29.2289C48.5831 29.2771 48.9105 29.4536 48.9105 29.8709C48.9105 30.3149 48.4067 30.6144 47.8727 30.6037C47.2329 30.593 46.2958 30.2346 45.8878 29.7478L45.1875 30.8284C46.0288 31.7592 46.9357 31.9197 47.8475 31.9197C49.4949 31.9197 50.3211 30.9889 50.3211 29.9137C50.3211 28.2928 48.9458 28.0307 47.8576 27.9558L47.8626 27.9504Z" fill="#FEFEFE"/>
<path d="M52.7734 24.74H54.0329L55.3176 23.0443V22.9801H53.64L52.7734 24.6652V24.74Z" fill="#FEFEFE"/>
<path d="M53.4501 25.4739C51.6163 25.4739 50.4727 26.9129 50.4727 28.6568C50.4727 30.4007 51.5911 31.8396 53.4601 31.8396C55.3292 31.8396 56.4577 30.4167 56.4577 28.6568C56.4577 26.8968 55.2788 25.4739 53.445 25.4739H53.4501ZM53.4601 30.4541C52.4223 30.4541 51.8984 29.5876 51.8984 28.6568C51.8984 27.726 52.4324 26.8487 53.4601 26.8487C54.4173 26.8487 55.0219 27.742 55.0219 28.6568C55.0219 29.5715 54.4979 30.4541 53.4601 30.4541Z" fill="#FEFEFE"/>
<path d="M60.0753 25.4354C59.4909 25.4354 58.8964 25.5478 58.4531 26.302L58.3473 25.5959H57.0273V31.7049H58.4531V28.4846C58.4531 27.3559 59.1433 26.9333 59.8889 26.9333C60.3574 26.9333 60.6244 27.067 60.9166 27.3291L61.5564 26.0185C61.2441 25.6868 60.6698 25.4354 60.0753 25.4354Z" fill="#FEFEFE"/>
<path d="M64.3432 30.4368C63.4565 30.4368 62.7109 29.8163 62.7109 28.6501C62.7109 27.5856 63.4112 26.842 64.3684 26.842C64.7663 26.842 65.1845 27.0025 65.522 27.3235L66.4188 26.3178C65.789 25.6598 65.1593 25.4138 64.3432 25.4138C62.6756 25.4138 61.2852 26.4783 61.2852 28.6448C61.2852 30.8113 62.6756 31.8758 64.3432 31.8758C65.1946 31.8758 65.8948 31.603 66.5598 30.9076L65.6026 29.9179C65.255 30.287 64.7966 30.4261 64.3432 30.4261V30.4368Z" fill="#FEFEFE"/>
<path d="M66.5703 23.8731C66.5703 25.05 68.253 25.05 68.253 23.8731C68.253 22.6963 66.5703 22.6963 66.5703 23.8731Z" fill="#FEFEFE"/>
<path d="M68.1093 25.57H66.6836V31.7004H68.1093V25.57Z" fill="#FEFEFE"/>
<path d="M71.7938 25.4739C69.96 25.4739 68.8164 26.9129 68.8164 28.6568C68.8164 30.4007 69.9348 31.8396 71.8039 31.8396C73.6729 31.8396 74.8014 30.4167 74.8014 28.6568C74.8014 26.8968 73.6226 25.4739 71.7888 25.4739H71.7938ZM71.8039 30.4541C70.7661 30.4541 70.2421 29.5876 70.2421 28.6568C70.2421 27.726 70.7761 26.8487 71.8039 26.8487C72.7611 26.8487 73.3656 27.742 73.3656 28.6568C73.3656 29.5715 72.8417 30.4541 71.8039 30.4541Z" fill="#FEFEFE"/>
</svg>
